<svg xmlns="http://www.w3.org/2000/svg" viewBox="0 0 450.5 567.23"><defs><style>.cls-1,.cls-2,.cls-5{stroke:#000;stroke-linecap:round;stroke-linejoin:round;stroke-width:3px}.cls-2{fill:#ff1d25}.cls-3{opacity:.26}.cls-4{opacity:.14}.cls-5,.cls-6{fill:#fff}.cls-7{fill:#c1272d}.cls-8{fill:#fbb03b}.cls-9{opacity:.22}.cls-10{fill:#f2f2f2}.cls-11{fill:none}.cls-12{fill:#ff6a83}</style></defs><g id="Calque_2" data-name="Calque 2"><g id="LAST_PLAN" data-name="LAST PLAN"><path d="M164.62,369.64C145.25,294.13,49.5,307.76,49.5,307.76L53.71,478S184,445.14,164.62,369.64ZM74.1,438,71.61,337.26s56.66-8.06,68.13,36.62S74.1,438,74.1,438Z" class="cls-1"/><polygon points="149.79 463.03 152.44 495.89 191.12 482.36 202.96 565.73 227.58 559.63 217.53 476.31 259.93 458.44 245.32 422.2 149.79 463.03" class="cls-1"/><path d="M287.43,389.38,237,352.73s11.18-30.05,3.39-43.84-67-.28-67-.28l13.69,116.56,21.78-14,0-46.73,43,35.64ZM203.7,339.44l-2.24-18.89c-1-8.12,25.39-.38,25.34,8.78S203.7,339.44,203.7,339.44Z" class="cls-1"/><path d="M348.15,315.71c-7.42-19.79-32.78-33.56-64.89-24.64,0,0-30.19,18.87-24.47,46.91s38.95,37.44,63.51,30.51S355.57,335.5,348.15,315.71ZM306.81,352c-10.87-.17-21-11.43-20.77-23.64.19-9.06,6.13-18.94,16.25-21.39,11.21-2.71,22.26,5,25.48,14.4C332.46,335.13,320.38,352.22,306.81,352Z" class="cls-1"/><path d="M410.31,302.88c-1.2-17.73-23.59-23.22-36.47-23.77s-19.91,2.11-19.91,2.11l4.67,14.57L369.31,359l12.46-2.53.11-40.56S411.52,320.61,410.31,302.88Zm-32.63,3.27-1-14.46s20.05,1.39,20.69,10S377.68,306.15,377.68,306.15Z" class="cls-1"/><path d="M283.73,483.28c-8.3-12.87-24.65-17.58-39.49-4.32,0,0-11.62,20.11-2.38,39.36s28.74,19.1,40.07,8.89S292,496.16,283.73,483.28Zm-14.86,35.87c-6.42,1.24-13-5.75-15-12.34-2.42-8,.88-18.87,7.74-20.56,6.59-1.63,14.39,5.74,16.18,13.53S275.77,517.82,268.87,519.15Z" class="cls-1"/><path d="M331.55,410.13c-9.21-23-45.52,10.09-45.52,10.09l20.68,95.18,14.17-8.64-6.05-56.95S340.77,433.1,331.55,410.13Zm-22.87,25.75-3.6-11.43s12.39-7.08,14.15-2S308.68,435.88,308.68,435.88Z" class="cls-1"/><path d="M163.84,230.4c-7.57-32.87,7.71-60.17,12.26-68,9.06-15.64,33.85-58.4,74.46-49,27.17,6.26,52.39,33.77,57.53,62.49,9.39,52.52-54,77.31-59.55,79.36-22.88,8.53-62.49,12.5-78.23-8.46C166.48,241.65,165.29,236.71,163.84,230.4Z" class="cls-2"/><path d="M190.76,152.44c-1.87-3.38.62-7.82,1.92-8.95,2.22-1.93,6.73-3.84,9.61-1.59,2.52,2,4.11,5.94.32,10.54C197.42,158.72,192.5,155.58,190.76,152.44Z" class="cls-3"/><path d="M223.83,128c-1.47-2.66,5.2-8.47,6.21-9.35,1.75-1.52,7-6.14,9.3-4.37,2,1.53,1.47,7.78-1.51,11.38C233.77,130.62,225.19,130.49,223.83,128Z" class="cls-3"/><path d="M265,224.3c-1.88-3.38.62-7.82,1.91-9,2.22-1.93,6.74-3.84,9.62-1.6,2.51,2,4.1,5.95.31,10.55C271.62,230.58,266.7,227.43,265,224.3Z" class="cls-4"/><path d="M244.93,141.14c-1.88-3.38,6.62-10.79,7.92-11.92,2.22-1.94,9-7.82,11.85-5.57,2.51,2,1.87,9.92-1.93,14.52C257.59,144.45,246.66,144.27,244.93,141.14Z" class="cls-3"/><path d="M197.54,146.17c-2.65-1.58-16.6-16-18.36-17.88-2.92-3.08-10.11-10.66-12.19-21.42-.49-2.55-1.9-10.38,2-17.61,1-1.89,5.52-10.25,14-9.85,5.94.28,12.47,4.76,13.56,7.33a3.61,3.61,0,0,0,1.52,1.89c.69.34,1.65.31,2-.19.57-.91-1.11-3.19-1.88-4.22-.87-1.19-4.55-5.94-9.4-7.9-8.31-3.36-17.7,2.42-22.29,9.2-6.45,9.5-3.64,21.29-3.2,23,1.78,7.06,5.94,12,14.25,21.87s16.47,16,17.75,18.06a2.15,2.15,0,0,0,1.13,1c.65.15,1.2-.41,1.48-.7s.82-.82.69-1.45S197.71,146.27,197.54,146.17Z" class="cls-5"/><path d="M228.17,124.52s-3.38-7.86-31.53,5.81c-16.56,8.09-31.13,30.29-43.93,30.29s-14.33-11.9-1.36-23.76,87.41-58.92,92.42-72.53,2.47-20.65,2.47-20.65l19.5,23.76s-6.89-.77-16.39,6.73-97.41,63.59-98.15,75,20-6.51,24.14-10.68,49.44-36.78,63.81-20.67" class="cls-5"/><path d="M269.59,67.87l-4.78-7.27c-5.81-8.16-13.22-17.06-15.29-20.31-1.31-2.06-6.63-10.82-11.73-19.26h0a17.64,17.64,0,0,1-7.9-2.05,13.35,13.35,0,0,1-5.12-4.8c.12.53.3,1.08.49,1.67a130.86,130.86,0,0,0,6.19,14A1.59,1.59,0,0,1,232,28c1-.69,4.65,1.37,6.16,2.49S249,53.39,249,53.39a.07.07,0,0,1,0,0c.42.31,7.24,5.52,10,9.48s5.26,10.87,5.41,11.3v0A22.64,22.64,0,0,0,269.59,67.87Z" class="cls-6"/><path d="M269.72,63.62s-11.23-16.84-16.5-22.22S231.55,4.15,229.66,3.16a2.82,2.82,0,0,0-2.45.32l.09.15c1,1.72,5.73,9.51,10.48,17.39h0c5.1,8.44,10.42,17.2,11.73,19.26,2.07,3.25,9.48,12.15,15.29,20.31,1.82,2.57,3.5,5.05,4.78,7.27A4.29,4.29,0,0,0,269.72,63.62Z" class="cls-7"/><path d="M237.78,21C233,13.14,228.33,5.35,227.3,3.63l-.09-.15c-2,1.15-4.1,4.41-2.47,10.65l0,0a13.35,13.35,0,0,0,5.12,4.8A17.64,17.64,0,0,0,237.78,21Z" class="cls-8"/><path d="M249,53.39S239.6,31.6,238.11,30.5,232.92,27.32,232,28a1.59,1.59,0,0,0-.51,1.82l0,.07s0,0,0,0v0l6.66,17v0a38.71,38.71,0,0,1,5,2A28.63,28.63,0,0,1,249,53.39Z" class="cls-8"/><path d="M264.41,74.22v0c-.15-.43-2.68-7.34-5.41-11.3s-9.56-9.17-10-9.48a.07.07,0,0,0,0,0A28.63,28.63,0,0,0,243.2,49a38.71,38.71,0,0,0-5-2v0a2.48,2.48,0,0,1-.07.63c-1.11,4.51,1.12,14.49,1.12,14.49s6.67-2.91,11.42,2.88,3.62,12,3.1,12.48,3,3.2,6.23.59C261,77.16,262.68,75.81,264.41,74.22Z" class="cls-7"/><path d="M228.88,3a1.84,1.84,0,0,1,.78.16C231.55,4.15,248,36,253.22,41.4s16.5,22.22,16.5,22.22a4.29,4.29,0,0,1-.13,4.25,22.64,22.64,0,0,1-5.18,6.35c-1.73,1.59-3.43,2.94-4.47,3.79a4.6,4.6,0,0,1-3,1.11c-2.05,0-3.63-1.4-3.26-1.7s1.64-6.67-3.1-12.48a9.36,9.36,0,0,0-7.48-3.61,10.86,10.86,0,0,0-3.94.73s-2.23-10-1.12-14.49a3,3,0,0,0,.08-.63l-6.67-17V29.9l0-.07a130.86,130.86,0,0,1-6.19-14c-.19-.59-.37-1.14-.49-1.67l0,0c-1.63-6.24.44-9.5,2.47-10.65A3.54,3.54,0,0,1,228.88,3m0-3a6.57,6.57,0,0,0-3.13.86c-3.2,1.8-5.9,6.43-3.92,14l.06.19c.15.6.34,1.19.51,1.7A130.52,130.52,0,0,0,228.67,31a.47.47,0,0,0,.06.15l6.33,16.16c-1,5.16,1,14.36,1.2,15.42a3,3,0,0,0,4.13,2.1h0a8.08,8.08,0,0,1,2.74-.48,6.35,6.35,0,0,1,5.16,2.51,11.61,11.61,0,0,1,2.8,9.08,3.19,3.19,0,0,0-.24,2.72c.69,2,3.38,3.48,6.12,3.48a7.63,7.63,0,0,0,4.87-1.79l.5-.4c1.08-.88,2.56-2.08,4.1-3.5a24.81,24.81,0,0,0,5.87-7.29c1.57-3.28.84-5.68,0-7.11l-.06-.08c-.46-.69-11.44-17.14-16.85-22.65-2.69-2.75-9.49-14.71-14.45-23.44C233.58,3,232.48,1.25,231.05.5a4.77,4.77,0,0,0-2.17-.5Z"/><path d="M269.72,63.62s-11.23-16.84-16.5-22.22S231.55,4.15,229.66,3.16a2.82,2.82,0,0,0-2.45.32,4.51,4.51,0,0,0-1,.81c1,3.25,2.54,7.12,4,10.58.43,1.05,1.18,2.83,2.37,5.24a148.17,148.17,0,0,0,15.81,24.61A153.86,153.86,0,0,0,266.17,64.9c.52.48,1.72,1.6,3.37,3.08a1.17,1.17,0,0,1,0-.11A4.29,4.29,0,0,0,269.72,63.62Z" class="cls-9"/><path d="M232.85,27.88s-.88,3-.14,3.62l1.93.78s-.87-1.17-.15-3.84c0,0-.49-.23-.91-.39A2.56,2.56,0,0,0,232.85,27.88Z" class="cls-10"/><path d="M251.79,136.36s-3.38-7.86-31.53,5.81c-16.56,8.09-31.13,30.29-43.93,30.29S162,160.56,175,148.7s87.41-58.92,92.42-72.53,7.74-18.3,7.74-18.3L289.58,77.5s-7.11,1-16.61,8.51-97.41,63.59-98.15,75,20-6.52,24.14-10.68,49.45-36.78,63.81-20.67" class="cls-5"/><path d="M282.74,69.53c-1.59-2.15-3.61-4.53-5.79-7Z"/><path d="M282.74,69.53c-1.59-2.15-3.61-4.53-5.79-7Z"/><path d="M293.34,81.82l-5-7.59c-6.06-8.51-13.8-17.8-15.95-21.19-1.38-2.15-6.93-11.29-12.25-20.11h0a18.5,18.5,0,0,1-8.25-2.15,14,14,0,0,1-5.35-5c.14.56.32,1.13.52,1.75a135.78,135.78,0,0,0,6.46,14.6,1.67,1.67,0,0,1,.53-1.9c1-.73,4.86,1.43,6.43,2.6s11.35,23.89,11.35,23.89l0,0c.44.32,7.56,5.76,10.41,9.9s5.5,11.35,5.65,11.8v0A24.05,24.05,0,0,0,293.34,81.82Z" class="cls-6"/><path d="M293.47,77.39S281.75,59.81,276.24,54.2s-22.61-38.89-24.59-39.92a2.92,2.92,0,0,0-2.55.34l.09.15c1.07,1.8,6,9.93,10.94,18.16h0c5.32,8.82,10.87,18,12.25,20.11,2.15,3.39,9.89,12.68,15.95,21.19,1.9,2.69,3.65,5.28,5,7.59A4.48,4.48,0,0,0,293.47,77.39Z" class="cls-7"/><path d="M260.13,32.93c-5-8.23-9.87-16.36-10.94-18.16l-.09-.15c-2.13,1.2-4.29,4.6-2.59,11.11l0,0a14,14,0,0,0,5.35,5A18.5,18.5,0,0,0,260.13,32.93Z" class="cls-8"/><path d="M271.82,66.71S262,44,260.47,42.82s-5.41-3.33-6.43-2.6a1.67,1.67,0,0,0-.53,1.9l0,.07v.05L260.51,60v0a40.55,40.55,0,0,1,5.26,2.08A29.91,29.91,0,0,1,271.82,66.71Z" class="cls-8"/><path d="M287.92,88.46v0c-.15-.45-2.79-7.67-5.65-11.8s-10-9.58-10.41-9.9l0,0a29.91,29.91,0,0,0-6-4.63A40.55,40.55,0,0,0,260.52,60v0a2.71,2.71,0,0,1-.08.66c-1.16,4.71,1.17,15.12,1.17,15.12s7-3,11.92,3,3.78,12.57,3.23,13,3.18,3.35,6.51.62C284.34,91.53,286.12,90.12,287.92,88.46Z" class="cls-7"/><path d="M250.84,14.11a1.83,1.83,0,0,1,.81.17c2,1,19.09,34.31,24.59,39.92s17.23,23.19,17.23,23.19a4.48,4.48,0,0,1-.13,4.43,24.2,24.2,0,0,1-5.42,6.64c-1.8,1.66-3.58,3.07-4.66,4a4.83,4.83,0,0,1-3.1,1.16c-2.15,0-3.79-1.47-3.41-1.78.55-.45,1.72-7-3.23-13a9.74,9.74,0,0,0-7.8-3.77,11.35,11.35,0,0,0-4.12.76s-2.33-10.41-1.17-15.12a2.71,2.71,0,0,0,.08-.66l-6.95-17.74v-.05l0-.07a135.78,135.78,0,0,1-6.46-14.6c-.2-.62-.39-1.19-.52-1.75l0,0c-1.7-6.51.46-9.92,2.59-11.11a3.63,3.63,0,0,1,1.74-.51m0-3a6.62,6.62,0,0,0-3.2.89c-3.3,1.85-6.08,6.63-4,14.49l.06.2c.16.62.36,1.24.53,1.77a134.62,134.62,0,0,0,6.54,14.81l.06.16,6.63,16.9c-1.09,5.35,1,15,1.24,16.08a3,3,0,0,0,1.57,2,3.09,3.09,0,0,0,1.36.32,3,3,0,0,0,1.2-.25h0a8.57,8.57,0,0,1,2.92-.51,6.75,6.75,0,0,1,5.48,2.67,12.49,12.49,0,0,1,3,9.58,3.22,3.22,0,0,0-.27,2.78c.71,2,3.47,3.54,6.27,3.54a7.86,7.86,0,0,0,5-1.84l.52-.42c1.13-.92,2.67-2.17,4.28-3.65a26.17,26.17,0,0,0,6.09-7.57c1.62-3.37.87-5.82,0-7.29l-.05-.08C295.48,75,284,57.84,278.39,52.1c-2.83-2.88-9.93-15.38-15.11-24.5-7.63-13.42-8.78-15.21-10.24-16a4.87,4.87,0,0,0-2.2-.51Z"/><path d="M293.47,77.39S281.75,59.81,276.24,54.2s-22.61-38.89-24.59-39.92a2.92,2.92,0,0,0-2.55.34,4.43,4.43,0,0,0-1.09.84c1,3.39,2.65,7.43,4.13,11,.46,1.1,1.23,3,2.47,5.47a155.3,155.3,0,0,0,16.51,25.69,160.07,160.07,0,0,0,18.64,21.06c.54.51,1.8,1.68,3.52,3.22a.67.67,0,0,1,.06-.12A4.48,4.48,0,0,0,293.47,77.39Z" class="cls-9"/><path d="M255,40.09s-.93,3.12-.15,3.77l2,.82s-.91-1.23-.16-4c0,0-.51-.25-.95-.41A2.68,2.68,0,0,0,255,40.09Z" class="cls-10"/><path d="M189,209.65l-.57,0c-3.3-.12-4.41-4.11-5.39-7.63a26.21,26.21,0,0,0-1.15-3.53c-.11-.25-.2-.42-.26-.53a1.38,1.38,0,0,1-.65-.43,1.85,1.85,0,0,1-.32-1.67l0-.32a12.76,12.76,0,0,0-.32-5.21c-.29-1.24-.59-2.51.34-3.65,2.31-2.84,4.59-5.81,6.8-8.68,3.12-4.06,6.34-8.25,9.73-12.2,5-5.81,7.76-9,13.05-10.45a15.66,15.66,0,0,1,4.13-.59,10.93,10.93,0,0,1,4.72,1,14.42,14.42,0,0,1,7.66,10.52c.49,3.68-.9,6.48-3.48,10.07a48.26,48.26,0,0,1-9.41,9.89,73.84,73.84,0,0,0-7.26,6.75c-8.28,8.86-11.51,12.48-11.54,12.51-.53.6-1,1.1-1.3,1.53C192.43,208.65,191.61,209.65,189,209.65Z" class="cls-6"/><path d="M214.39,156.24a9.14,9.14,0,0,1,4.09.86,12.82,12.82,0,0,1,6.81,9.36c.44,3.27-.9,5.78-3.21,9-5.94,8.27-9.46,8.92-16.55,16.5-8.38,9-11.56,12.53-11.56,12.53-2.52,2.81-2.53,3.67-5,3.67l-.52,0c-3.16-.11-3.68-6.87-5.22-10.28-.55-1.22-.88-1.32-1-1.32h-.07c-.09,0-.06-.07,0-.81.7-4.95-1.31-6.87-.3-8.12,5.59-6.87,10.74-14.15,16.51-20.85,4.89-5.68,7.46-8.66,12.3-10a14.18,14.18,0,0,1,3.73-.53m0-3a17.35,17.35,0,0,0-4.52.64c-5.73,1.57-8.75,5.08-13.77,10.91-3.43,4-6.67,8.2-9.8,12.27-2.2,2.87-4.47,5.83-6.77,8.66-1.4,1.71-1,3.57-.64,4.93a11.29,11.29,0,0,1,.29,4.66l0,.32a3.33,3.33,0,0,0,.66,2.86,2.86,2.86,0,0,0,.68.57v0a25.29,25.29,0,0,1,1.07,3.33c1.07,3.81,2.39,8.56,6.78,8.72l.63,0c3.36,0,4.57-1.48,6-3.19.36-.43.76-.91,1.27-1.48h0c.12-.13,3.31-3.69,11.52-12.47a71.55,71.55,0,0,1,7.12-6.63,49.62,49.62,0,0,0,9.67-10.16c2.23-3.12,4.37-6.54,3.75-11.15a15.76,15.76,0,0,0-8.5-11.67,12.41,12.41,0,0,0-5.38-1.15Z"/><path d="M215.32,239.74c-2.07,0-2.85-.41-3.57-1.18-.14-.15-.23-.24-.94-.31-4.53-.46-6.31-4.1-7.63-7.47a3.14,3.14,0,0,0-1-1.46,2.68,2.68,0,0,1-.91-3c1.07-5.26,1.72-6.34,3.18-7.9,2.66-2.85,5.3-5.83,7.84-8.72,3.59-4.06,7.31-8.26,11.19-12.18,5.71-5.78,8.86-9,14.58-10.11a17,17,0,0,1,3.48-.37,12.12,12.12,0,0,1,5.91,1.4A15.26,15.26,0,0,1,255,200c.3,3.9-1.36,6.75-4.34,10.35A50.37,50.37,0,0,1,240,220.15a81.22,81.22,0,0,0-8.22,6.64c-9.42,8.78-13.12,12.38-13.15,12.41a1.51,1.51,0,0,1-.92.42C216.74,239.7,216,239.74,215.32,239.74Z" class="cls-6"/><path d="M241.58,188.58a10.34,10.34,0,0,1,5.18,1.22,13.68,13.68,0,0,1,6.75,10.35c.26,3.48-1.33,6-4,9.27-6.88,8.32-10.7,8.76-18.77,16.28-9.55,8.9-13.18,12.43-13.18,12.43-.93.08-1.66.12-2.24.12-3.35,0-1.6-1.21-4.35-1.49-3.38-.35-4.93-2.82-6.38-6.53-1.05-2.68-2.18-1.71-1.8-3.58,1.05-5.17,1.64-5.92,2.8-7.17,6.43-6.86,12.4-14.2,19-20.87,5.6-5.65,8.54-8.63,13.82-9.69a16,16,0,0,1,3.18-.34m0-3h0a19,19,0,0,0-3.77.39c-6.18,1.25-9.63,4.74-15.35,10.52-3.92,4-7.65,8.19-11.26,12.27-2.54,2.87-5.16,5.85-7.81,8.67-1.75,1.88-2.47,3.31-3.55,8.63a4.19,4.19,0,0,0,1.38,4.39,1.72,1.72,0,0,1,.56.87c1.59,4.07,3.77,7.9,8.88,8.42l.17,0c1.09,1.08,2.34,1.49,4.48,1.49.7,0,1.52-.05,2.51-.14h0a3,3,0,0,0,1.83-.84c.39-.38,4.09-4,13.13-12.38a78,78,0,0,1,8.07-6.52,52.25,52.25,0,0,0,11-10c2.58-3.12,5.06-6.56,4.69-11.42a16.6,16.6,0,0,0-8.29-12.75,13.63,13.63,0,0,0-6.63-1.59Z"/><path d="M194.28,204.2s3.19-3.55,11.57-12.52c7.09-7.59,10.61-8.25,16.55-16.51,2.31-3.21,3.65-5.73,3.22-9a12.86,12.86,0,0,0-6.83-9.37c-.81-.38-3.46-1.5-7.8-.32-4.86,1.32-7.43,4.31-12.32,10s-9.24,11.64-13.81,17.49a13.11,13.11,0,0,1,4.18-2.55,7.34,7.34,0,0,1,9.21,3.16c2.27,3.6,3.79,7.66,1.72,9.58s-10.24,10.21-12.84,11.34a3.32,3.32,0,0,1-2.95-.53c.74,1.49,1.52,2.87,2.29,4.17a1.76,1.76,0,0,0,.31,0C189.79,209.3,191.6,207.19,194.28,204.2Z" class="cls-6"/><path d="M191.87,216.93a71,71,0,0,1-5.4-7.79c-.77-1.3-1.55-2.68-2.29-4.17l0,0a44.57,44.57,0,0,1-2.29-5.3,32.2,32.2,0,0,1-1.47-9.88c0-2.22.07-4.39.22-6.34v-.15c.34-4.17.91-7.25.82-7.38s-6,16.54-3.78,23.87v0a7.38,7.38,0,0,0,.55,1.33,48,48,0,0,0,5.39,7.22C187.61,212.91,191.87,216.93,191.87,216.93Z"/><path d="M200,194.16c2.07-1.92.55-6-1.72-9.58a7.34,7.34,0,0,0-9.21-3.16,13.11,13.11,0,0,0-4.18,2.55c-.89,1.12-1.78,2.25-2.7,3.36a25.85,25.85,0,0,0-1.76,2.44,32.2,32.2,0,0,0,1.47,9.88,44.57,44.57,0,0,0,2.29,5.3l0,0a3.32,3.32,0,0,0,2.95.53C189.73,204.37,197.88,196.06,200,194.16Z"/><path d="M216,239.6c.46-.44.93-.9,1.42-1.39,0,0,3.64-3.53,13.18-12.43,8.08-7.5,11.91-7.95,18.77-16.27,2.69-3.23,4.28-5.8,4-9.26a13.77,13.77,0,0,0-6.73-10.37c-.86-.45-3.63-1.84-8.38-.88-5.29,1.06-8.21,4.05-13.81,9.71-4.09,4.13-7.93,8.5-11.77,12.88a5,5,0,0,1,4.1-.25c2.31.85,8.69,7.93,7.47,11s-8,10.38-10.09,12a22.27,22.27,0,0,1-4.29,2.3A30.27,30.27,0,0,0,216,239.6Z" class="cls-6"/><path d="M231.4,243.13c-.33-.22-8.25-.93-15.39-3.53a30.27,30.27,0,0,1-6.12-3l-.73-.52a55,55,0,0,1-8.56-8.17c-.67-.79-1.3-1.54-1.83-2.24-2-2.45-3.11-4.21-3.11-4.21s1,2.09,2.55,4.91c.59,1.06,1.25,2.22,1.95,3.41a65.75,65.75,0,0,0,5.58,8.29c.35.41.68.79,1,1.15,1.28,1.36,3.5,2.27,6.11,2.89h0C220.28,243.84,230.75,243.18,231.4,243.13Z"/><path d="M214.18,234.3c2.09-1.6,8.87-8.94,10.09-12s-5.16-10.13-7.47-11a5,5,0,0,0-4.1.25c-2.39,2.69-4.78,5.37-7.23,8a19.28,19.28,0,0,0-4.87,8.33,55,55,0,0,0,8.56,8.17l.73.52A22.27,22.27,0,0,0,214.18,234.3Z"/><path d="M272.5,216c1.87-2.49,8.48-25,2.77-47.88-8.47-34-40.41-54.23-45.79-55.38-.4-.09-2.86-.54-3-1.4-.21-1.08,3.26-2.15,3.66-2.28,6.66-2.06,28.79,15,41.65,40.69,0,0,13.69,27.35,9.27,52.69-1.35,7.78-6.55,17.61-6.89,18.17-.08.13-.38.57-.71,1-.71.93-.85.94-.92.94-.5-.06-1.1-1.42-1.22-2.63A5.65,5.65,0,0,1,272.5,216Z" class="cls-5"/><path d="M245.79,128a4.91,4.91,0,0,1-3.6-1.88c-.88-1-1.37-1-1.56-1a5.12,5.12,0,0,0-2,.74,9.45,9.45,0,0,1-4.41,1.32c-2.08,0-4.2-1-6.48-2.94-2-1.75-5-4.72-5.16-4.85-1.79-1.69-6-6-5.6-8.74a2.53,2.53,0,0,1,1.36-1.94,3.33,3.33,0,0,1,1.56-.38,3.88,3.88,0,0,1,.82.09,4,4,0,0,1,0-1.14,3,3,0,0,1,1.21-2.1,2.34,2.34,0,0,1,1.43-.45,3.74,3.74,0,0,1,1.66.4,1.76,1.76,0,0,1,0-.23,3,3,0,0,1,1.07-2.2A3,3,0,0,1,228,102a3.9,3.9,0,0,1,1.31.21,3.41,3.41,0,0,1,.33-1.07,3.19,3.19,0,0,1,2.91-1.79,4.28,4.28,0,0,1,2.4.8c2.64,1.76,6.63,6.5,6.8,6.7,2.08,2.52,3.93,4.39,5.41,5.88a22.51,22.51,0,0,1,3.78,4.44c1,1.9.27,5.67-1.11,8-1.05,1.78-2.48,2.76-4,2.76Z" class="cls-6"/><path d="M232.53,100.87a2.87,2.87,0,0,1,1.57.55c2.49,1.66,6.48,6.42,6.48,6.42,4.43,5.35,7.74,7.75,9,10.08,1,1.87-.73,8.53-3.81,8.53a3.46,3.46,0,0,1-2.49-1.39,3.61,3.61,0,0,0-2.67-1.46c-1.93,0-3.69,2.06-6.38,2.06-1.48,0-3.25-.63-5.49-2.58-2-1.74-5.1-4.78-5.1-4.78s-7.27-6.87-4.59-8.28a1.85,1.85,0,0,1,.86-.21c1.59,0,3.67,1.68,5.18,3.15,1.07,1.25,2,2.15,2,2.15a28.59,28.59,0,0,0-2-2.15c-1.84-2.16-4-5.33-2.3-6.6a1,1,0,0,1,.54-.15c1.7,0,5.3,3.19,7,4.75.51.52.87.84.87.84s-.33-.33-.87-.84c-1.7-1.71-5.13-5.56-3.26-7.13a1.39,1.39,0,0,1,.93-.31c1.64,0,4.09,2,5.69,3.5.89.94,1.61,1.6,1.61,1.6s-.66-.71-1.61-1.6a31.57,31.57,0,0,1-2.37-2.73c-1.16-1.56-.35-3.42,1.23-3.42m0-3a4.74,4.74,0,0,0-4.25,2.62l0,0H228a4.4,4.4,0,0,0-2.86,1,4.56,4.56,0,0,0-1.26,1.7,4.89,4.89,0,0,0-.51,0h0A3.79,3.79,0,0,0,221,104a4.48,4.48,0,0,0-1.79,2.91,4.86,4.86,0,0,0-1.58.5,4.06,4.06,0,0,0-2.15,3.07c-.43,3.15,3,7.19,6.06,10,.31.31,3.23,3.17,5.21,4.89,2.56,2.23,5,3.31,7.46,3.31a10.93,10.93,0,0,0,5.09-1.48,8.82,8.82,0,0,1,1.23-.56,3.05,3.05,0,0,1,.51.45,6.34,6.34,0,0,0,4.71,2.38c1.21,0,3.51-.45,5.31-3.5,1.37-2.31,2.62-6.78,1.13-9.48a23.2,23.2,0,0,0-4-4.77c-1.46-1.48-3.28-3.32-5.31-5.77-.45-.54-4.36-5.16-7.12-7a5.93,5.93,0,0,0-3.24-1Z"/><path d="M199.47,116.73c-2.7,0-5.59-4.82-7.08-7.69-.07-.12-2.06-3.78-3.17-6.16-2.86-6.13-.4-9,1.23-10.87,1.24-1.44,1.65-1.92.68-3.5-1.38-2.23-1-3.84-.49-4.8C192.05,81.17,195.83,81,197,81s3.43.13,4.68,1.38a21.88,21.88,0,0,1,3.16,4.77c1,1.8,2.27,4.05,4.07,6.68.15.22,3.53,5.26,4.5,8.25a4,4,0,0,1-.4,3.62,3.15,3.15,0,0,1-2.58,1.31l-.35,0a3.25,3.25,0,0,1-1.21,3,2.9,2.9,0,0,1-1.71.57h0a2.93,2.93,0,0,1-.79-.09c.23,1.65-.23,2.41-.81,2.91a2.91,2.91,0,0,1-1.88.69h0a3.36,3.36,0,0,1-1.42-.32,3.49,3.49,0,0,1-.86,2.17,2.51,2.51,0,0,1-1.88.87Z" class="cls-6"/><path d="M197,82.48a5.68,5.68,0,0,1,3.62.94c1.84,1.83,3.22,5.62,7,11.24,0,0,3.4,5,4.31,7.86.6,1.85-.38,3-1.55,3a2.28,2.28,0,0,1-1.8-1,31.29,31.29,0,0,1-1.93-3c-.59-1.15-1.08-2-1.08-2s.44.85,1.08,2c1.19,2.34,2.77,6.09,1.28,7.19a1.38,1.38,0,0,1-.82.28c-1.8,0-4-3.43-5-5.22-.33-.64-.56-1-.56-1s.21.43.56,1c1.16,2.25,3.6,7.36,2.37,8.39a1.41,1.41,0,0,1-.91.34c-1.51,0-3.34-2.31-4.6-4.21-.76-1.42-1.49-2.49-1.49-2.49s.6,1.15,1.49,2.49c1.16,2.18,2.4,5.21,1.2,6.56a1,1,0,0,1-.76.37c-2.19,0-5.75-6.88-5.75-6.88s-2-3.74-3.14-6.11c-4.43-9.5,5.3-8.91,1.82-14.52-2.33-3.78,1.34-5.24,4.56-5.24m0-3h0c-3.56,0-6.41,1.31-7.63,3.5-.6,1.07-1.33,3.32.52,6.32a2.39,2.39,0,0,1,.31.64,7.67,7.67,0,0,1-.85,1.09c-1.76,2-4.72,5.47-1.45,12.48,1.1,2.34,3,5.88,3.21,6.25,2.91,5.62,5.74,8.47,8.4,8.47a4,4,0,0,0,3-1.38,4.64,4.64,0,0,0,.85-1.35h.31a4.38,4.38,0,0,0,2.84-1,3.84,3.84,0,0,0,1.34-2.53,4.41,4.41,0,0,0,3.62-3.57,4.53,4.53,0,0,0,2.75-1.81,5.5,5.5,0,0,0,.62-5c-1-3.12-4.31-8.06-4.68-8.61-1.77-2.59-3-4.81-4-6.59a23.1,23.1,0,0,0-3.41-5.09c-1.59-1.59-4.28-1.82-5.74-1.82Z"/><path d="M169.69,191.49c-2.93,5.77-3.79,12.27-3.91,19.12-.16,10-.29,17.68,3.94,26.68a32.25,32.25,0,0,0,7.87,11.14c5.81,5.13,12.7,6.89,12.95,6.22.15-.39-2-1.61-7.77-6.18a89.44,89.44,0,0,1-7.2-6.06c-4.75-4.88-5.67-11.56-6.51-17.7-2-14.2,1.53-28.09,2.27-31.07.43-1.7,1.49-5.68,1-6S170,191,169.69,191.49Z" class="cls-6"/><path d="M191.81,255.85c-.08.68,1.18,1.5,1.3,1.57.86.56,2.33,1,2.75.34s-.11-1.78-.87-2.38C193.79,254.43,191.9,255.06,191.81,255.85Z" class="cls-6"/><line x1="232" x2="231.99" y1="154.74" y2="154.75" class="cls-11"/><line x1="261.3" x2="261.28" y1="172.05" y2="172.06" class="cls-11"/><path d="M238.86,163.57l3.51-3.57c-2.12-2.81-4.5-6.08-6.48-8.84L232,154.74C233.92,157.47,236.75,161,238.86,163.57Z" class="cls-5"/><path d="M242.37,160l.75-.78,3.59-3.63c-2.9-3.17-5.55-6-7.22-7.74l-3.25,3-.35.32C237.87,153.92,240.25,157.19,242.37,160Z" class="cls-5"/><path d="M235.89,151.16l.35-.32,3.25-3c-.63-.63-1.11-1.12-1.45-1.42-3.24-2.89-4.88-2.77-6.61-1.45l.73,1c.56.79,1.4,2,2.42,3.35Z" class="cls-5"/><path d="M232,154.74l3.89-3.58-1.31-1.8c-1-1.39-1.86-2.56-2.42-3.35l-.73-1c-1.72,1.31-2.73,3.22-1.62,6.24A18.42,18.42,0,0,0,232,154.74Z" class="cls-5"/><path d="M245.69,171.46l3.4-3.07.91-.8-6.88-8.37-.75.78-3.51,3.57c1.63,2,2.83,3.42,2.83,3.42S243.42,168.89,245.69,171.46Z" class="cls-5"/><path d="M250,167.59l4.12-3.73,0,0-7.43-8.25-3.59,3.63Z" class="cls-5"/><path d="M256.38,176.42l.49-.46,4.41-3.9c-1.41-1.7-4.1-4.76-7.14-8.22l0,0L250,167.59l-.91.8C251.3,170.87,253.94,173.78,256.38,176.42Z" class="cls-5"/><path d="M252.83,179.54l3.55-3.12c-2.44-2.64-5.08-5.55-7.29-8l-3.4,3.07C247.91,173.93,250.64,177,252.83,179.54Z" class="cls-5"/><path d="M263.6,184.16l-.15-.17-6.58-8-.49.46-3.55,3.12c1,1.14,1.85,2.17,2.52,3C258.73,186.65,261.17,186.29,263.6,184.16Z" class="cls-5"/><path d="M263.6,184.16l.55-.54c2.63-2.58-.57-8.4-1.87-10.32a13.06,13.06,0,0,0-1-1.24l-4.41,3.9,6.58,8Z" class="cls-5"/><path d="M261.77,189.75c-2.19,0-4.36-1.34-6.64-4.11s-6.69-7.77-10.31-11.84l-3.61-4-1.34-1.49c-1.29-1.53-12.31-14.68-13.62-18.19s-.47-6.56,2.35-8.7a5.36,5.36,0,0,1,3.38-1.28l.47,0c1.61.12,3.3,1,5.47,3,3.65,3.26,25.76,28,27.39,30.37a21.8,21.8,0,0,1,3.37,8.16A5.93,5.93,0,0,1,267.2,187c-1.21,1.19-3.08,2.77-5.43,2.77Zm-18.86-23.63c.5.54,2.1,2.33,3.91,4.35.56.62,1.16,1.29,1.77,2,1.75,1.95,3.67,4.12,5.38,6.11,1,1.15,1.87,2.17,2.54,3,1.44,1.76,2.7,2.65,3.74,2.65a3.76,3.76,0,0,0,2.36-1.18l.15-.15c.13-.14.27-.27.4-.39a2.2,2.2,0,0,0,.5-1.52,11.72,11.72,0,0,0-1.61-5.12c-.13-.27-.25-.47-.35-.65-.26-.44-.49-.81-.67-1.09s-.61-.75-.89-1.07c-1.38-1.67-3.95-4.6-6.93-8l-.2-.22c-2.38-2.66-5-5.56-7.41-8.23-2.7-2.93-5.49-5.95-7.18-7.7l-.14-.14c-.53-.52-.95-.95-1.25-1.22s-.53-.46-.78-.66A9.71,9.71,0,0,0,235,146a2.92,2.92,0,0,0-1.33-.45l-.21,0h-.13l-.14.05-.09,0-.09,0-.11.06a4.79,4.79,0,0,0-.59.38c-1.51,1.16-1.85,2.52-1.11,4.53a16.3,16.3,0,0,0,2,3.15c1.91,2.73,4.75,6.26,6.8,8.75l.58.7,1.78,2.16c.25.29.42.51.47.57Z" class="cls-12"/><path d="M232,141.64l.33,0c1.21.09,2.65.85,4.61,2.6,3.62,3.24,25.7,28,27.15,30.09a20.2,20.2,0,0,1,3.12,7.51,4.53,4.53,0,0,1-1,4c-1.44,1.42-2.84,2.34-4.38,2.34s-3.39-1-5.48-3.57c-2.29-2.8-6.8-7.89-10.35-11.88l-3.61-4L241,167.3S228.91,153,227.66,149.6s-.09-5.52,1.85-7a4,4,0,0,1,2.47-1m28.27,44.07a5.17,5.17,0,0,0,3.34-1.55c.19-.18.37-.38.56-.54a3.63,3.63,0,0,0,1-2.62,13.39,13.39,0,0,0-1.78-5.85c-.12-.25-.26-.49-.39-.71-.26-.45-.51-.85-.7-1.15s-.5-.63-1-1.23c-1.4-1.7-4.09-4.76-7.13-8.22-2.39-2.68-5-5.57-7.43-8.24-2.91-3.17-5.55-6-7.22-7.74-.62-.63-1.11-1.13-1.45-1.43s-.57-.49-.84-.71a9.86,9.86,0,0,0-1.47-1,4.24,4.24,0,0,0-2-.63,3.42,3.42,0,0,0-.46,0,2.07,2.07,0,0,0-.43.1l-.24.09a1.94,1.94,0,0,0-.3.13,5.79,5.79,0,0,0-.83.53c-1.71,1.31-2.73,3.23-1.62,6.24a18.11,18.11,0,0,0,2.19,3.52c1.92,2.74,4.75,6.26,6.86,8.82.21.25.4.5.6.72l1.76,2.15.45.53v0c.2.21,1.86,2.05,4,4.46.56.62,1.16,1.29,1.76,2,1.82,2,3.75,4.21,5.37,6.1,1,1.14,1.85,2.16,2.52,3,1.87,2.29,3.45,3.2,4.9,3.2M232,138.64a6.88,6.88,0,0,0-4.31,1.61c-3.32,2.51-4.33,6.2-2.83,10.37,1.34,3.6,10.94,15.16,13.85,18.61l0,.05,0,0,1.33,1.48,1.46,1.62,2.16,2.39c3.6,4,8,9,10.25,11.77,2.59,3.15,5.14,4.67,7.81,4.67,2.9,0,5.09-1.83,6.48-3.2a7.38,7.38,0,0,0,1.92-6.6c-.5-4-3.09-8-3.61-8.76-1.65-2.44-24-27.38-27.64-30.67-2.42-2.16-4.38-3.19-6.35-3.35l-.59,0Zm1.62,8.5.09,0h0a2,2,0,0,1,.54.24h0l0,0a6.54,6.54,0,0,1,1,.69c.23.19.45.37.69.59s.68.65,1.17,1.14l.18.18c1.67,1.73,4.44,4.73,7.14,7.66,2.42,2.66,5.05,5.59,7.39,8.21l.11.13c3,3.41,5.6,6.36,6.95,8l0,0,0,0c.19.23.65.76.79.94l.6,1c.1.18.2.35.26.49l0,.06,0,.07a10.46,10.46,0,0,1,1.44,4.39,1.06,1.06,0,0,1-.1.51c-.12.12-.25.24-.37.37l-.12.12c-.8.69-1.19.76-1.32.76s-.91-.06-2.58-2.1c-.63-.76-1.46-1.75-2.56-3-1.73-2-3.65-4.18-5.42-6.14-.59-.68-1.2-1.37-1.78-2-1.65-1.86-3.28-3.67-3.85-4.3-.05-.07-.23-.3-.55-.67l-.45-.54-1.28-1.55,0,0,0,0-.3-.37-.26-.31c-2.91-3.54-5.23-6.53-6.71-8.63a17.56,17.56,0,0,1-1.82-2.79c-.64-1.74-.12-2.31.62-2.88a2.8,2.8,0,0,1,.34-.21Z"/><line x1="254.14" x2="254.32" y1="163.84" y2="163.68" class="cls-11"/><path d="M406.11,222.29a93,93,0,0,0-12.71-38.93A112.93,112.93,0,0,0,365,151.06a106.94,106.94,0,0,0-21.05-12.74c-1.74-.8-3.27,1.79-1.51,2.59a107.58,107.58,0,0,1,34.19,24.83,104,104,0,0,1,21.64,34.82,83.91,83.91,0,0,1,4.89,21.73c.15,1.91,3.16,1.93,3,0Z"/><path d="M450.35,191.58a146,146,0,0,0-28.14-41.15,161.71,161.71,0,0,0-40.87-30.81,151.41,151.41,0,0,0-26.51-11c-1.85-.56-2.64,2.34-.8,2.9A152.26,152.26,0,0,1,398.77,134a155.52,155.52,0,0,1,35.3,35.33,138.47,138.47,0,0,1,13.69,23.76c.79,1.76,3.38.23,2.59-1.51Z"/><path d="M45.48,143.35a93,93,0,0,0,12.71,38.92,113.1,113.1,0,0,0,28.45,32.31,106.94,106.94,0,0,0,21,12.74c1.74.79,3.27-1.79,1.51-2.59A107.77,107.77,0,0,1,75,199.9a104.07,104.07,0,0,1-21.64-34.82,84.1,84.1,0,0,1-4.89-21.73c-.16-1.91-3.16-1.93-3,0Z"/><path d="M.15,168a146.15,146.15,0,0,0,28.14,41.14A162.16,162.16,0,0,0,69.16,240a152.14,152.14,0,0,0,26.51,11c1.85.56,2.64-2.33.8-2.9a152.08,152.08,0,0,1-44.73-22.45,155.36,155.36,0,0,1-35.31-35.33A138.47,138.47,0,0,1,2.74,166.5C2,164.74-.64,166.27.15,168Z"/><path d="M170,361.11c-19.38-75.5-115.12-61.88-115.12-61.88l4.21,170.21S189.37,436.61,170,361.11ZM79.48,429.46,77,328.73s56.66-8.06,68.13,36.62S79.48,429.46,79.48,429.46Z" class="cls-2"/><polygon points="155.17 454.51 157.82 487.37 196.5 473.83 208.34 557.2 232.96 551.11 222.91 467.79 265.31 449.91 250.7 413.67 155.17 454.51" class="cls-2"/><path d="M292.81,380.85,242.33,344.2s11.18-30.05,3.39-43.84-67-.27-67-.27l13.68,116.56,21.79-14,0-46.73,43.05,35.64Zm-83.73-49.94L206.84,312c-1-8.11,25.39-.38,25.34,8.78S209.08,330.91,209.08,330.91Z" class="cls-2"/><path d="M353.53,307.18c-7.42-19.79-32.78-33.56-64.89-24.64,0,0-30.2,18.88-24.48,46.91s38.95,37.44,63.52,30.51S361,327,353.53,307.18Zm-41.34,36.3c-10.87-.17-21-11.42-20.78-23.64.2-9.06,6.13-18.93,16.26-21.38,11.21-2.72,22.25,5,25.47,14.39C337.84,326.6,325.76,343.69,312.19,343.48Z" class="cls-2"/><path d="M415.69,294.35c-1.2-17.72-23.59-23.21-36.47-23.77s-19.91,2.12-19.91,2.12L364,287.26l10.71,63.24L387.14,348l.11-40.56S416.89,312.08,415.69,294.35Zm-32.64,3.27-1-14.45s20.05,1.38,20.68,10S383.05,297.62,383.05,297.62Z" class="cls-2"/><path d="M289.11,474.76c-8.3-12.87-24.66-17.58-39.49-4.33,0,0-11.62,20.12-2.38,39.36s28.74,19.11,40.07,8.89S297.4,487.63,289.11,474.76Zm-14.86,35.86c-6.42,1.24-13-5.75-15-12.34-2.41-8,.88-18.87,7.75-20.56,6.59-1.62,14.39,5.75,16.18,13.53S281.14,509.3,274.25,510.62Z" class="cls-2"/><path d="M336.93,401.6c-9.21-23-45.52,10.09-45.52,10.09l20.67,95.18,14.18-8.64-6.05-56.94S346.15,424.58,336.93,401.6Zm-22.88,25.75-3.59-11.42s12.39-7.08,14.15-2S314.05,427.35,314.05,427.35Z" class="cls-2"/></g></g></svg>